<svg width="22" height="22" viewBox="0 0 22 22" fill="none" xmlns="http://www.w3.org/2000/svg">
<path d="M10.1717 1.2243C10.5683 0.638083 11.4317 0.638083 11.8283 1.2243L15.0008 5.91374C15.132 6.10768 15.3271 6.24943 15.5521 6.31428L20.9924 7.8824C21.6724 8.07843 21.9392 8.89952 21.5042 9.45785L18.0247 13.9242C17.8808 14.1089 17.8063 14.3383 17.8141 14.5723L18.0039 20.2309C18.0276 20.9383 17.3291 21.4457 16.6637 21.2046L11.3407 19.2755C11.1206 19.1957 10.8794 19.1957 10.6593 19.2755L5.33628 21.2046C4.67087 21.4457 3.9724 20.9383 3.99612 20.2309L4.1859 14.5723C4.19375 14.3383 4.11922 14.1089 3.97532 13.9242L0.495752 9.45785C0.0607796 8.89952 0.327571 8.07843 1.00765 7.8824L6.44793 6.31428C6.67292 6.24943 6.86802 6.10768 6.99923 5.91374L10.1717 1.2243Z" fill="#FFCE22"/>
</svg>
